Coordinates
version=1
nRows=34
nColumns=38
inDegrees=no

Units are S.I. units (second, meters, Newtons, ...)
If the header above contains a line with 'inDegrees', this indicates whether rotational values are in degrees (yes) or radians (no).

endheader
time	pelvis_tilt	pelvis_list	pelvis_rotation	pelvis_tx	pelvis_ty	pelvis_tz	hip_flexion_r	hip_adduction_r	hip_rotation_r	knee_angle_r	ankle_angle_r	subtalar_angle_r	mtp_angle_r	hip_flexion_l	hip_adduction_l	hip_rotation_l	knee_angle_l	ankle_angle_l	subtalar_angle_l	mtp_angle_l	lumbar_extension	lumbar_bending	lumbar_rotation	arm_flex_r	arm_add_r	arm_rot_r	elbow_flex_r	pro_sup_r	wrist_flex_r	wrist_dev_r	arm_flex_l	arm_add_l	arm_rot_l	elbow_flex_l	pro_sup_l	wrist_flex_l	wrist_dev_l
1.32	2.84849	1.27754	-1.24454	0.724787	0.829608	0.948601	-0.491969	0.148242	0.0629906	0.0737588	-0.261341	0	0	0.220039	-0.189904	-0.245211	0.569809	-0.151008	0	0	-0.533715	0.129811	0.0763512	-0.133643	-0.607217	0.730693	0.890923	0.58138	0	0	-0.13777	-0.317929	0.276707	0.761661	1.21791	0	0
1.33	2.84619	1.2859	-1.23642	0.723243	0.838173	0.946913	-0.501256	0.147667	0.0657343	0.0540089	-0.266202	0	0	0.213262	-0.169344	-0.215733	0.483773	-0.142826	0	0	-0.525544	0.130893	0.0732794	-0.135835	-0.604509	0.724875	0.886365	0.585816	0	0	-0.130244	-0.320897	0.294624	0.756427	1.20569	0	0
1.34	2.84313	1.28993	-1.23024	0.72181	0.847591	0.94506	-0.521506	0.148309	0.0714457	0.0198654	-0.276448	0	0	0.20642	-0.161638	-0.220577	0.422735	-0.132836	0	0	-0.520548	0.132445	0.0714335	-0.1405	-0.60476	0.718949	0.88732	0.587591	0	0	-0.129261	-0.322708	0.303473	0.757188	1.19926	0	0
1.35	2.94818	1.35821	-1.35042	0.723708	0.858687	0.93252	-0.518769	0.110308	0.0716235	0	-0.281696	0	0	0.263871	-0.113328	-0.23756	0.395659	-0.111749	0	0	-0.449002	0.0796145	0.0672209	-0.163539	-0.599195	0.70729	0.90076	0.588461	0	0	-0.155194	-0.341827	0.301027	0.786755	1.19451	0	0
1.36	2.9416	1.3691	-1.34413	0.722754	0.868916	0.930284	-0.523598	0.108253	0.0810131	0	-0.284883	0	0	0.267497	-0.10858	-0.251208	0.358639	-0.0971233	0	0	-0.43528	0.0770086	0.0652251	-0.165833	-0.594617	0.705492	0.894068	0.589933	0	0	-0.160576	-0.344464	0.303629	0.79001	1.19143	0	0
1.37	2.93067	1.37488	-1.33483	0.721885	0.87855	0.928767	-0.523598	0.106818	0.0909647	0	-0.2872	0	0	0.264023	-0.104732	-0.253904	0.320548	-0.0866661	0	0	-0.428444	0.07668	0.06551	-0.16548	-0.592259	0.705698	0.888536	0.592503	0	0	-0.161822	-0.344815	0.306385	0.789406	1.18823	0	0
1.38	2.92165	1.37914	-1.3283	0.72107	0.888244	0.927528	-0.523598	0.104694	0.0998469	0	-0.289484	0	0	0.256671	-0.0998	-0.246888	0.284439	-0.0824065	0	0	-0.422969	0.0761943	0.0675351	-0.16581	-0.59004	0.705748	0.883017	0.596456	0	0	-0.161413	-0.344307	0.31034	0.786776	1.18419	0	0
1.39	2.91583	1.38115	-1.3268	0.720298	0.897993	0.926589	-0.523599	0.101164	0.109408	0	-0.292227	0	0	0.246807	-0.095391	-0.237205	0.260309	-0.0860886	0	0	-0.419823	0.0751601	0.072662	-0.168163	-0.587748	0.702855	0.877971	0.601671	0	0	-0.159254	-0.343486	0.31672	0.782955	1.17933	0	0
1.4	2.91333	1.38103	-1.32888	0.719488	0.907802	0.925832	-0.523599	0.0977665	0.113877	0	-0.293147	0	0	0.240056	-0.0933359	-0.233972	0.265388	-0.089459	0	0	-0.419885	0.074073	0.076902	-0.169742	-0.587344	0.701238	0.876061	0.603202	0	0	-0.159222	-0.34234	0.318865	0.78122	1.17838	0	0
1.41	2.9164	1.38035	-1.33647	0.718666	0.917828	0.925293	-0.523599	0.0931682	0.117298	0	-0.294335	0	0	0.232301	-0.0897499	-0.227607	0.28061	-0.0933063	0	0	-0.420289	0.0718992	0.0820105	-0.172488	-0.586328	0.69876	0.873499	0.605113	0	0	-0.158561	-0.341139	0.321418	0.77858	1.17814	0	0
1.42	2.92459	1.37993	-1.34862	0.717723	0.928177	0.924861	-0.523599	0.0879812	0.118199	5.50416e-08	-0.295667	0	0	0.223693	-0.0832437	-0.217537	0.298952	-0.0943085	0	0	-0.419865	0.0689203	0.0865041	-0.176208	-0.584697	0.695672	0.870275	0.607087	0	0	-0.158471	-0.339732	0.323405	0.775939	1.17838	0	0
1.43	2.89732	1.39756	-1.33277	0.716914	0.938251	0.923794	-0.523599	0.0822267	0.118546	0	-0.296672	0	0	0.230965	-0.0771689	-0.207655	0.310156	-0.0919977	0	0	-0.420023	0.0653475	0.0944894	-0.176668	-0.585087	0.692319	0.865844	0.609324	0	0	-0.164292	-0.341865	0.3221	0.76798	1.17845	0	0
1.44	2.89999	1.40608	-1.33994	0.71574	0.949344	0.923006	-0.523599	0.0756988	0.120419	0.000333195	-0.298377	0	0	0.23248	-0.0698124	-0.203836	0.315813	-0.0927367	0	0	-0.413187	0.0613724	0.0965668	-0.179059	-0.582351	0.68976	0.860368	0.611861	0	0	-0.166577	-0.338925	0.321371	0.763121	1.17877	0	0
1.45	2.91045	1.41203	-1.35229	0.714324	0.960556	0.92258	-0.523599	0.0697249	0.122269	0.00459004	-0.30129	0	0	0.230769	-0.0617136	-0.20059	0.31554	-0.100516	0	0	-0.406496	0.057721	0.0972067	-0.182931	-0.579418	0.687075	0.854981	0.614996	0	0	-0.169068	-0.336604	0.320555	0.759524	1.18052	0	0
1.46	2.9248	1.41754	-1.36709	0.712787	0.971944	0.922317	-0.523599	0.0642262	0.123107	0.00902526	-0.304944	0	0	0.23047	-0.0558383	-0.20375	0.318251	-0.115242	0	0	-0.399779	0.0541263	0.0965858	-0.187409	-0.576301	0.683931	0.849956	0.618418	0	0	-0.172268	-0.334805	0.319391	0.757054	1.18296	0	0
1.47	2.93852	1.42265	-1.38046	0.711151	0.983488	0.922161	-0.523599	0.0593409	0.123904	0.0133023	-0.309132	0	0	0.224464	-0.046601	-0.1939	0.309743	-0.133665	0	0	-0.392222	0.0510116	0.0954517	-0.192455	-0.573177	0.680905	0.84478	0.622525	0	0	-0.17619	-0.332977	0.317636	0.754771	1.18561	0	0
1.48	2.95026	1.42687	-1.39085	0.709162	0.99525	0.922037	-0.523599	0.0549994	0.122098	0.0179181	-0.314088	0	0	0.219485	-0.0391078	-0.186298	0.307533	-0.152997	0	0	-0.384926	0.0492786	0.0933409	-0.198565	-0.571027	0.677189	0.84073	0.626584	0	0	-0.18103	-0.330552	0.315541	0.752896	1.18867	0	0
1.49	2.9594	1.43009	-1.39812	0.706932	1.00722	0.921951	-0.523599	0.0513522	0.117919	0.022825	-0.320188	0	0	0.215625	-0.0333847	-0.178134	0.313332	-0.169837	0	0	-0.378042	0.0487833	0.0905937	-0.205956	-0.569889	0.672526	0.838265	0.630232	0	0	-0.186927	-0.327652	0.313018	0.751422	1.19218	0	0
1.5	2.9792	1.42771	-1.41395	0.704621	1.01906	0.922443	-0.523599	0.0482749	0.111104	0.0541632	-0.327083	0	0	0.208431	-0.0284234	-0.169588	0.327174	-0.18336	0	0	-0.373353	0.0483577	0.0864797	-0.21422	-0.568665	0.668024	0.836076	0.634026	0	0	-0.192783	-0.325184	0.310506	0.750097	1.1961	0	0
1.51	3.00718	1.422	-1.43673	0.702331	1.03088	0.923466	-0.523599	0.0445183	0.102491	0.0957383	-0.334488	0	0	0.198737	-0.0230857	-0.162485	0.345033	-0.194309	0	0	-0.371147	0.0472235	0.081507	-0.22208	-0.567336	0.664467	0.833711	0.638273	0	0	-0.198396	-0.323496	0.308117	0.74929	1.20022	0	0
1.52	3.03717	1.41145	-1.46261	0.700197	1.04249	0.925051	-0.523599	0.0391019	0.0923017	0.148682	-0.34282	0	0	0.187026	-0.0215403	-0.17191	0.371828	-0.203514	0	0	-0.373736	0.0455384	0.0776891	-0.229347	-0.567244	0.661729	0.833054	0.642925	0	0	-0.203933	-0.322559	0.305266	0.750787	1.20374	0	0
1.53	3.08795	1.38084	-1.50403	0.69818	1.05338	0.928144	-0.523599	0.032238	0.0786376	0.205654	-0.351583	0	0	0.148611	-0.0128305	-0.167671	0.383638	-0.210595	0	0	-0.378479	0.0422771	0.0713046	-0.23757	-0.565044	0.659056	0.834169	0.646725	0	0	-0.202591	-0.319035	0.30462	0.760799	1.20686	0	0
1.54	3.10821	1.36684	-1.52465	0.69678	1.06376	0.930254	-0.523599	0.020946	0.0535531	0.313069	-0.36658	0	0	0.124559	-0.00917766	-0.170768	0.390752	-0.217961	0	0	-0.395129	0.0378397	0.0702946	-0.241437	-0.567738	0.652424	0.842417	0.651981	0	0	-0.208692	-0.322387	0.298497	0.776707	1.20959	0	0
1.55	2.96941	1.29934	-1.37195	0.691443	1.07238	0.942249	-0.515339	0.0439622	0.00221666	0.497124	-0.425557	0	0	0.038894	-0.0494886	-0.164875	0.369679	-0.239754	0	0	-0.471528	0.0915712	0.0729664	-0.232152	-0.583269	0.648455	0.844257	0.657591	0	0	-0.182707	-0.298182	0.299312	0.749069	1.21679	0	0
1.56	2.98578	1.30239	-1.38822	0.689815	1.08313	0.942836	-0.475004	0.0248917	-0.0311442	0.590275	-0.464649	0	0	0.0327893	-0.0437407	-0.16846	0.380568	-0.23695	0	0	-0.467179	0.0866786	0.070682	-0.239098	-0.582535	0.638778	0.846444	0.663053	0	0	-0.188428	-0.296626	0.291078	0.753469	1.22503	0	0
1.57	3.00342	1.30793	-1.40522	0.687956	1.09393	0.943056	-0.434672	0.00555139	-0.0570222	0.672728	-0.508787	0	0	0.0303909	-0.037149	-0.174255	0.393785	-0.225645	0	0	-0.458934	0.0814084	0.066421	-0.244053	-0.581885	0.633491	0.846096	0.672081	0	0	-0.195407	-0.29407	0.281825	0.755767	1.2385	0	0
1.58	3.01536	1.3105	-1.41774	0.686011	1.10484	0.943027	-0.398798	-0.0116316	-0.0762338	0.74727	-0.556518	0	0	0.0354021	-0.0421951	-0.217445	0.435708	-0.209496	0	0	-0.453582	0.078304	0.0625062	-0.250118	-0.585241	0.628428	0.851508	0.680803	0	0	-0.205648	-0.291638	0.27044	0.763383	1.24961	0	0
1.59	3.03936	1.31295	-1.44115	0.684282	1.11494	0.943516	-0.362447	-0.030077	-0.0908909	0.818614	-0.596226	0	0	0.0173597	-0.0252139	-0.190309	0.414947	-0.200627	0	0	-0.450222	0.0718952	0.0564582	-0.251058	-0.585568	0.626594	0.852092	0.686585	0	0	-0.21183	-0.290195	0.261612	0.7678	1.25582	0	0
1.6	3.05018	1.31438	-1.45357	0.682577	1.12501	0.943619	-0.326079	-0.0449451	-0.099931	0.88855	-0.628207	0	0	0.0149357	-0.0263219	-0.21656	0.439367	-0.188192	0	0	-0.447724	0.0688547	0.0524136	-0.253415	-0.589214	0.623828	0.857575	0.689869	0	0	-0.219619	-0.288181	0.252657	0.774635	1.25922	0	0
1.61	3.0641	1.31657	-1.46953	0.681216	1.13444	0.944009	-0.287637	-0.0587286	-0.103129	0.956582	-0.653047	0	0	-0.0026061	-0.0136242	-0.193255	0.420938	-0.177325	0	0	-0.445563	0.0643715	0.0486557	-0.251657	-0.59138	0.624871	0.859491	0.69202	0	0	-0.22402	-0.286107	0.245223	0.777905	1.26234	0	0
1.62	3.0706	1.31638	-1.47923	0.680044	1.14365	0.944593	-0.252433	-0.0676216	-0.0993229	1.01776	-0.672781	0	0	-0.0169312	-0.00936988	-0.192637	0.4176	-0.168584	0	0	-0.446109	0.0618368	0.0464844	-0.248898	-0.595011	0.627473	0.862602	0.693312	0	0	-0.22749	-0.284034	0.239592	0.781235	1.26442	0	0
1.63	3.07395	1.31496	-1.48576	0.678914	1.15257	0.945454	-0.219787	-0.0713048	-0.0879916	1.07121	-0.689954	0	0	-0.0334328	-0.00607176	-0.190989	0.41082	-0.161036	0	0	-0.448238	0.0603069	0.0444316	-0.244148	-0.598777	0.632016	0.864584	0.693923	0	0	-0.229363	-0.28116	0.234373	0.782363	1.26664	0	0
1.64	-2.96613	1.36882	-1.7405	0.683089	1.16502	0.934023	-0.147368	-0.110442	-0.0459329	1.13574	-0.5828	0	0	0.0211059	0.0448262	-0.20837	0.441149	-0.119224	0	0	-0.375415	-0.0113948	0.0239248	-0.249973	-0.583072	0.643228	0.870835	0.700652	0	0	-0.286014	-0.314153	0.210584	0.845802	1.25318	0	0
1.65	3.06459	1.31589	-1.48441	0.6771	1.1698	0.947498	-0.150592	-0.0697463	-0.0621671	1.16714	-0.677136	0	0	-0.0624733	-0.00447497	-0.188441	0.394043	-0.147588	0	0	-0.448399	0.060683	0.0394083	-0.223961	-0.605995	0.655939	0.860455	0.691808	0	0	-0.229443	-0.270677	0.220327	0.774445	1.27015	0	0
